HIERARCHY
ROOT Hips
{
	OFFSET 0.000000 0.000000 0.000000
	CHANNELS 6 Xposition Yposition Zposition Zrotation Yrotation Xrotation 
	JOINT LeftUpLeg_virtual
	{
		OFFSET 0.000000 0.000000 0.000000
		CHANNELS 3 Zrotation Yrotation Xrotation
		JOINT LeftUpLeg
		{
			OFFSET 8.479694 -4.795517 -0.379053
			CHANNELS 3 Zrotation Yrotation Xrotation
			JOINT LeftLeg
			{
				OFFSET 0.485052 -32.551468 0.112863
				CHANNELS 3 Zrotation Yrotation Xrotation
				JOINT LeftFoot
				{
					OFFSET 0.438033 -32.635670 -3.012641
					CHANNELS 3 Zrotation Yrotation Xrotation
					JOINT LeftToeBase
					{
						OFFSET 0.970169 -13.225353 11.864223
						CHANNELS 3 Zrotation Yrotation Xrotation
						End Site
						{
							OFFSET 0.000000 0.000000 0.000000
						}
					}
				}
			}
		}
	}
	JOINT RightUpLeg_virtual
	{
		OFFSET 0.000000 0.000000 0.000000
		CHANNELS 3 Zrotation Yrotation Xrotation
		JOINT RightUpLeg
		{
			OFFSET -8.479694 -4.795517 -0.379053
			CHANNELS 3 Zrotation Yrotation Xrotation
			JOINT RightLeg
			{
				OFFSET -0.484100 -32.551483 0.112903
				CHANNELS 3 Zrotation Yrotation Xrotation
				JOINT RightFoot
				{
					OFFSET -0.438985 -32.635651 -3.012681
					CHANNELS 3 Zrotation Yrotation Xrotation
					JOINT RightToeBase
					{
						OFFSET -0.970169 -13.225354 11.864223
						CHANNELS 3 Zrotation Yrotation Xrotation
						End Site
						{
							OFFSET 0.000000 0.000000 0.000000
						}
					}
				}
			}
		}
	}
	JOINT Spine_virtual
	{
		OFFSET 0.000000 0.000000 0.000000
		CHANNELS 3 Zrotation Yrotation Xrotation
		JOINT Spine
		{
			OFFSET 0.000000 7.722015 1.166203
			CHANNELS 3 Zrotation Yrotation Xrotation
			JOINT Spine1
			{
				OFFSET 0.000000 12.024086 0.248766
				CHANNELS 3 Zrotation Yrotation Xrotation
				JOINT Spine2
				{
					OFFSET -0.000000 11.503036 -0.491240
					CHANNELS 3 Zrotation Yrotation Xrotation
					JOINT Neck_virtual
					{
						OFFSET 0.000000 0.000000 0.000000
						CHANNELS 3 Zrotation Yrotation Xrotation
						JOINT Neck
						{
							OFFSET 0.000000 18.430687 -3.123054
							CHANNELS 3 Zrotation Yrotation Xrotation
							JOINT Head
							{
								OFFSET -0.000000 9.051071 1.034021
								CHANNELS 3 Zrotation Yrotation Xrotation
								End Site
								{
									OFFSET 0.000000 0.000000 0.000000
								}
							}
						}
					}
					JOINT LeftShoulder_virtual
					{
						OFFSET 0.000000 0.000000 0.000000
						CHANNELS 3 Zrotation Yrotation Xrotation
						JOINT LeftShoulder
						{
							OFFSET 6.197824 13.665230 -4.064723
							CHANNELS 3 Zrotation Yrotation Xrotation
							JOINT LeftArm
							{
								OFFSET 7.778132 -0.187073 -1.709282
								CHANNELS 3 Zrotation Yrotation Xrotation
								JOINT LeftForeArm
								{
									OFFSET 21.954697 0.000000 -2.041093
									CHANNELS 3 Zrotation Yrotation Xrotation
									JOINT LeftHand
									{
										OFFSET 22.992908 0.000000 -0.870901
										CHANNELS 3 Zrotation Yrotation Xrotation
										End Site
										{
											OFFSET 0.000000 0.000000 0.000000
										}
									}
								}
							}
						}
					}
					JOINT RightShoulder_virtual
					{
						OFFSET 0.000000 0.000000 0.000000
						CHANNELS 3 Zrotation Yrotation Xrotation
						JOINT RightShoulder
						{
							OFFSET -6.197824 13.665230 -4.064723
							CHANNELS 3 Zrotation Yrotation Xrotation
							JOINT RightArm
							{
								OFFSET -7.778132 -0.187073 -1.709282
								CHANNELS 3 Zrotation Yrotation Xrotation
								JOINT RightForeArm
								{
									OFFSET -21.954697 0.000000 -2.041093
									CHANNELS 3 Zrotation Yrotation Xrotation
									JOINT RightHand
									{
										OFFSET -22.992908 0.000000 -0.870901
										CHANNELS 3 Zrotation Yrotation Xrotation
										End Site
										{
											OFFSET 0.000000 0.000000 0.000000
										}
									}
								}
							}
						}
					}
				}
			}
		}
	}
}
MOTION
Frames: 14
Frame Time: 0.033333
17.223787 79.080994 -2.669473 179.932331 3.452765 -179.867090 -0.421330 -0.354841 9.448927 -0.140611 -1.928062 -30.280653 6.728143 6.353046 28.773647 0.540067 -1.036155 -14.087513 0.000000 0.000000 0.000000 2.666518 -0.608884 9.313041 -3.559552 7.532900 -29.518817 0.526431 5.416523 33.408682 10.360988 8.130941 -16.595227 0.000000 0.000000 0.000000 4.028717 2.233625 -3.885987 -1.510786 -3.731322 -6.316027 -1.529177 -1.453015 10.960388 0.018479 -0.016170 0.035618 -1.993073 0.250594 11.469514 -3.134559 0.616912 -0.865495 0.000000 0.000000 0.000000 -0.425106 0.816344 8.826035 -12.620205 -7.387194 2.870574 -59.318110 -5.881708 6.250047 1.403787 -21.877292 6.732233 0.000000 0.000000 0.000000 -4.624004 2.308656 8.110169 26.506625 2.264342 6.738119 48.575250 4.427453 6.739261 -5.334660 25.117420 -3.519291 0.000000 0.000000 0.000000 
17.254866 79.097740 -2.405734 179.923425 3.370529 -179.783106 -0.535651 -0.313298 9.662060 -0.067390 -1.880379 -30.441801 6.984843 6.499894 29.079431 0.815976 -0.641226 -14.197449 0.000000 0.000000 0.000000 2.527190 -0.585112 9.418914 -3.527930 7.608985 -29.665287 1.000344 5.808623 33.448434 10.860020 8.742316 -16.840076 0.000000 0.000000 0.000000 4.060184 2.166625 -3.779099 -1.504318 -3.735671 -6.376521 -1.530879 -1.288676 10.924158 -0.029223 -0.065771 0.024142 -1.894425 0.338843 11.452369 -3.151455 0.564072 -0.889594 0.000000 0.000000 0.000000 -0.342255 0.862669 8.771798 -12.613891 -7.279133 2.852192 -59.222726 -6.141458 5.848631 1.370955 -21.862522 6.662065 0.000000 0.000000 0.000000 -4.519201 2.495880 8.054055 26.616615 2.348644 6.730281 48.541994 4.761692 6.983329 -5.190559 24.737755 -3.384649 0.000000 0.000000 0.000000 
17.307581 79.112183 -2.111485 179.949339 3.253433 -179.809265 -0.608115 -0.284740 9.785619 0.080570 -1.849282 -30.823086 7.039666 6.491044 29.240429 0.651792 -0.761285 -14.095903 0.000000 0.000000 0.000000 2.583168 -0.521041 9.611050 -3.402794 7.327367 -29.910194 0.996522 6.136772 33.305416 10.814021 8.614943 -16.611078 0.000000 0.000000 0.000000 4.083676 2.335173 -3.550191 -1.475683 -3.749523 -6.335856 -1.502364 -1.316063 10.852985 -0.015667 0.042784 0.050508 -1.909223 0.305061 11.341656 -3.206637 0.510029 -0.997623 0.000000 0.000000 0.000000 -0.368842 0.903147 8.780443 -12.521982 -7.358046 2.785805 -59.313588 -6.586637 5.492223 1.394963 -21.635550 6.493207 0.000000 0.000000 0.000000 -4.550984 2.469301 7.991337 26.803532 2.571710 6.840545 48.326389 5.318559 7.754934 -5.140622 23.999082 -3.359566 0.000000 0.000000 0.000000 
17.364925 79.113747 -1.828107 179.963819 3.089131 -179.832215 -0.782847 -0.306170 9.819579 0.348948 -1.876106 -31.205662 7.104227 6.462556 29.420862 0.420402 -0.856802 -14.100116 0.000000 0.000000 0.000000 2.590977 -0.663870 9.765599 -3.298498 7.191399 -30.175718 0.987382 6.254785 33.205026 10.834912 8.561103 -16.297603 0.000000 0.000000 0.000000 4.051596 2.356390 -3.377409 -1.459532 -3.751337 -6.276907 -1.442449 -1.327564 10.871684 0.024449 0.024410 0.004159 -1.893251 0.224892 11.313198 -3.255187 0.438978 -1.105861 0.000000 0.000000 0.000000 -0.356585 0.991573 8.755002 -12.483933 -7.372550 2.719798 -59.600149 -6.954642 5.260651 1.359899 -21.270094 6.313936 0.000000 0.000000 0.000000 -4.506002 2.435842 8.044515 26.737440 2.872964 6.853018 48.253593 5.821199 8.481597 -5.154429 23.224766 -3.439177 0.000000 0.000000 0.000000 
17.395773 79.103928 -1.594473 179.930911 2.912572 -179.878523 -0.908738 -0.367005 9.762996 0.477550 -1.942182 -31.439026 7.253428 6.443622 29.587966 0.203953 -0.942115 -14.079564 0.000000 0.000000 0.000000 2.515443 -0.786251 9.782357 -3.172013 7.046491 -30.340879 1.005069 6.307135 33.198104 10.894978 8.539014 -16.044751 0.000000 0.000000 0.000000 3.989046 2.298074 -3.233445 -1.468949 -3.714269 -6.100202 -1.421379 -1.325786 10.827626 -0.020702 -0.015909 0.021791 -1.798472 0.434013 11.265732 -3.307842 0.356405 -1.283671 0.000000 0.000000 0.000000 -0.259166 1.019999 8.757086 -12.434740 -7.365329 2.602346 -59.966520 -7.165234 5.131981 1.346524 -20.786665 6.239415 0.000000 0.000000 0.000000 -4.386609 2.529754 8.066371 26.734306 3.059728 6.845483 48.002604 6.102587 9.003362 -5.136101 22.902765 -3.414555 0.000000 0.000000 0.000000 
17.380714 79.086945 -1.434055 179.962576 2.723205 -179.851257 -0.983994 -0.461607 9.627392 0.519120 -1.985445 -31.543808 7.475309 6.459438 29.733060 -0.055706 -0.968511 -13.999750 0.000000 0.000000 0.000000 2.434966 -0.791581 9.658775 -3.015509 6.888808 -30.385353 1.006460 6.276604 33.252581 10.946250 8.496264 -15.906387 0.000000 0.000000 0.000000 3.945255 2.287885 -3.255631 -1.469771 -3.575548 -6.012735 -1.362997 -1.228042 10.969572 0.009925 -0.068476 -0.014495 -1.793641 0.381452 11.282103 -3.283080 0.237764 -1.320114 0.000000 0.000000 0.000000 -0.231792 1.011602 8.825610 -12.393368 -7.531726 2.528952 -60.247466 -7.178226 5.046457 1.326186 -20.372812 5.875664 0.000000 0.000000 0.000000 -4.400357 2.522788 8.123345 26.714268 3.056957 6.882079 47.804351 6.123862 9.371451 -5.243190 23.058034 -3.588916 0.000000 0.000000 0.000000 
17.349684 79.076561 -1.331400 179.933233 2.533145 -179.877977 -1.049896 -0.596252 9.474607 0.429961 -2.091618 -31.458991 7.764656 6.504066 29.760637 -0.325179 -0.986040 -13.892294 0.000000 0.000000 0.000000 2.311850 -0.888642 9.470621 -2.899691 6.775697 -30.339974 1.026141 6.258592 33.387057 11.016952 8.462516 -15.785332 0.000000 0.000000 0.000000 3.906872 2.144496 -3.375914 -1.523685 -3.526626 -5.821419 -1.364394 -1.247439 10.935923 -0.013031 0.022309 0.006721 -1.759138 0.583392 11.396101 -3.196497 0.103073 -1.330553 0.000000 0.000000 0.000000 -0.208203 1.019186 8.938012 -12.413727 -7.684004 2.450529 -60.449817 -6.959118 5.011349 1.275617 -20.121237 5.627926 0.000000 0.000000 0.000000 -4.349341 2.485202 8.253182 26.821162 3.072547 6.836927 47.604854 6.076168 9.553585 -5.343970 23.553033 -3.706987 0.000000 0.000000 0.000000 
17.340305 79.083893 -1.283469 179.942932 2.380017 -179.857814 -1.125807 -0.598824 9.315405 0.381753 -2.215966 -31.295288 8.069039 6.552014 29.646344 -0.671888 -0.983943 -13.781174 0.000000 0.000000 0.000000 2.239965 -0.794835 9.312574 -2.746154 6.436359 -30.295294 1.049030 6.265444 33.473207 11.127897 8.469710 -15.674808 0.000000 0.000000 0.000000 3.910142 2.129397 -3.573074 -1.590319 -3.435419 -5.741708 -1.363747 -1.204862 11.056366 -0.013702 0.047356 0.037101 -1.792079 0.438723 11.468857 -3.094153 -0.003015 -1.218364 0.000000 0.000000 0.000000 -0.267431 0.975066 8.949330 -12.443181 -7.762242 2.380467 -60.576210 -6.604274 4.868578 1.152787 -20.075999 5.426336 0.000000 0.000000 0.000000 -4.397680 2.515026 8.279580 26.946947 2.918425 6.832501 47.527885 5.948524 9.777187 -5.508110 24.002359 -3.912444 0.000000 0.000000 0.000000 
17.349220 79.106956 -1.250127 179.934954 2.284763 -179.858989 -1.258757 -0.462543 9.208992 0.417729 -2.326646 -31.136503 8.334349 6.579817 29.464613 -1.078061 -0.967581 -13.727705 0.000000 0.000000 0.000000 2.226630 -0.610527 9.268039 -2.632007 6.058473 -30.287374 1.027008 6.214405 33.586325 11.287964 8.566930 -15.510957 0.000000 0.000000 0.000000 3.893604 2.232786 -3.813278 -1.708330 -3.381911 -5.668283 -1.380858 -1.188726 11.146436 -0.023471 0.073057 0.052044 -1.795880 0.532823 11.582714 -2.882288 -0.167788 -1.025742 0.000000 0.000000 0.000000 -0.292638 0.996377 9.050990 -12.404982 -7.854132 2.290403 -60.469919 -6.243939 4.623080 0.999184 -20.234683 5.264970 0.000000 0.000000 0.000000 -4.420540 2.423263 8.438894 27.097165 3.006847 6.673222 47.572175 5.672558 9.994843 -5.624693 24.230646 -4.002047 0.000000 0.000000 0.000000 
17.385448 79.129204 -1.231323 179.962275 2.110505 -179.890995 -1.434529 -0.242958 9.145999 0.567457 -2.471214 -31.069322 8.539202 6.526547 29.332855 -1.547129 -0.987901 -13.780959 0.000000 0.000000 0.000000 2.224247 -0.594766 9.278560 -2.459743 5.586348 -30.360594 1.052115 6.301226 33.754167 11.313891 8.548536 -15.329000 0.000000 0.000000 0.000000 3.869188 2.253644 -4.031917 -1.847855 -3.264212 -5.574571 -1.369835 -1.130172 11.218896 0.024561 -0.049553 0.005918 -1.853841 0.385132 11.849255 -2.651648 -0.216000 -0.731249 0.000000 0.000000 0.000000 -0.375265 1.061622 9.208787 -12.411457 -7.867026 2.214201 -60.260751 -5.986806 4.356223 0.812871 -20.470024 5.154095 0.000000 0.000000 0.000000 -4.507578 2.562966 8.641800 27.293105 3.035218 6.595984 47.678074 5.553018 10.112565 -5.655261 24.212566 -4.020687 0.000000 0.000000 0.000000 
17.442099 79.128128 -1.229452 179.894711 1.839500 -179.919409 -1.623998 -0.024457 9.144396 0.699321 -2.613989 -31.134765 8.744193 6.417772 29.361081 -2.012843 -1.039527 -13.895057 0.000000 0.000000 0.000000 2.107111 -0.518713 9.342074 -2.275421 5.180604 -30.478353 1.077008 6.199312 33.888745 11.274661 8.543716 -15.272165 0.000000 0.000000 0.000000 3.755036 2.532414 -4.240674 -2.023128 -3.335843 -5.402362 -1.404361 -1.199394 11.378976 -0.017094 0.044799 0.048389 -1.789147 0.509546 11.987205 -2.347786 -0.350896 -0.366765 0.000000 0.000000 0.000000 -0.351067 0.953222 9.237333 -12.334397 -7.923906 2.078903 -59.973200 -5.872341 4.042126 0.658479 -20.655838 5.065128 0.000000 0.000000 0.000000 -4.461912 2.513328 8.678313 27.476398 3.024644 6.463358 47.778300 5.459078 10.323278 -5.683383 24.112837 -3.978321 0.000000 0.000000 0.000000 
17.470001 79.092178 -1.275968 179.909491 1.583933 -179.930187 -1.759738 0.123492 9.211536 0.780322 -2.668017 -31.335398 8.957230 6.297994 29.627844 -2.466617 -1.153880 -14.100501 0.000000 0.000000 0.000000 1.963570 -0.424813 9.437012 -2.062417 4.971782 -30.556808 1.121857 6.119043 34.077617 11.148548 8.502590 -15.279896 0.000000 0.000000 0.000000 3.696807 2.676311 -4.467628 -2.135417 -3.272015 -5.204062 -1.394798 -1.169085 11.494182 -0.024199 -0.065064 0.058816 -1.760840 0.464324 12.202689 -2.147466 -0.249225 -0.003123 0.000000 0.000000 0.000000 -0.369833 1.040690 9.339641 -12.239380 -7.938113 1.979632 -59.716508 -5.733128 3.917980 0.488577 -20.849895 5.081424 0.000000 0.000000 0.000000 -4.434661 2.379246 8.887880 27.491207 3.116102 6.292097 47.747182 5.308841 10.587017 -5.618439 24.060537 -3.821808 0.000000 0.000000 0.000000 
17.518536 79.027000 -1.413004 179.903044 1.129054 -179.898590 -1.877385 0.144108 9.298450 0.834698 -2.714814 -31.640445 9.173467 6.131071 30.093899 -2.909902 -1.337999 -14.399502 0.000000 0.000000 0.000000 1.766299 -0.383772 9.494544 -1.786478 4.704625 -30.627845 1.151176 6.061037 34.400504 10.953588 8.428673 -15.529424 0.000000 0.000000 0.000000 3.597367 2.667857 -4.701130 -2.201162 -3.266997 -4.978695 -1.371470 -1.235610 11.594635 0.033749 0.056145 0.007277 -1.794348 0.318452 12.518599 -2.034387 -0.170187 0.365385 0.000000 0.000000 0.000000 -0.447173 0.831653 9.443852 -12.147065 -7.732580 1.858981 -59.580218 -5.362431 3.924304 0.301887 -21.126250 5.109562 0.000000 0.000000 0.000000 -4.513895 2.452925 8.999071 27.481536 3.001442 6.106885 47.705712 4.978550 11.041580 -5.692189 24.340728 -3.803069 0.000000 0.000000 0.000000 
17.612938 78.957848 -1.621542 179.896596 0.462748 -179.911322 -1.983196 0.158703 9.456878 0.938794 -2.673022 -31.965398 9.233846 5.957684 30.579037 -3.400775 -1.627628 -14.701222 0.000000 0.000000 0.000000 1.598704 -0.355324 9.610666 -1.455666 4.440575 -30.608981 1.124777 5.956475 34.734572 10.666863 8.317229 -16.018797 0.000000 0.000000 0.000000 3.512444 2.745662 -4.923970 -2.230212 -3.130306 -4.765492 -1.338481 -1.153284 11.716579 0.009373 -0.033512 0.055407 -1.698997 0.347945 12.650169 -2.033963 -0.039549 0.625889 0.000000 0.000000 0.000000 -0.417746 0.934966 9.479355 -11.958429 -7.694247 1.846843 -59.496159 -4.962837 4.123957 0.162386 -21.562050 5.306331 0.000000 0.000000 0.000000 -4.476589 2.365177 9.017970 27.437980 2.741239 5.885285 47.565209 4.437835 11.223904 -5.581500 24.824724 -3.617932 0.000000 0.000000 0.000000 
